<?xml version="1.0" encoding="UTF-8" standalone="no"?>
<svg
   xmlns:dc="http://purl.org/dc/elements/1.1/"
   xmlns:cc="http://creativecommons.org/ns#"
   xmlns:rdf="http://www.w3.org/1999/02/22-rdf-syntax-ns#"
   xmlns:svg="http://www.w3.org/2000/svg"
   xmlns="http://www.w3.org/2000/svg"
   xmlns:sodipodi="http://sodipodi.sourceforge.net/DTD/sodipodi-0.dtd"
   xmlns:inkscape="http://www.inkscape.org/namespaces/inkscape"
   id="Capa_1"
   enable-background="new 0 0 512 512"
   height="512"
   viewBox="0 0 512 512"
   width="512"
   version="1.1"
   sodipodi:docname="balance-powersave.svg"
   inkscape:version="0.92.4 (5da689c313, 2019-01-14)">
  <metadata
     id="metadata3943">
    <rdf:RDF>
      <cc:Work
         rdf:about="">
        <dc:format>image/svg+xml</dc:format>
        <dc:type
           rdf:resource="http://purl.org/dc/dcmitype/StillImage" />
        <dc:title></dc:title>
      </cc:Work>
    </rdf:RDF>
  </metadata>
  <defs
     id="defs3941" />
  <sodipodi:namedview
     pagecolor="#ffffff"
     bordercolor="#666666"
     borderopacity="1"
     objecttolerance="10"
     gridtolerance="10"
     guidetolerance="10"
     inkscape:pageopacity="0"
     inkscape:pageshadow="2"
     inkscape:window-width="1920"
     inkscape:window-height="1040"
     id="namedview3939"
     showgrid="false"
     inkscape:zoom="1.5585938"
     inkscape:cx="256"
     inkscape:cy="256"
     inkscape:window-x="0"
     inkscape:window-y="0"
     inkscape:window-maximized="1"
     inkscape:current-layer="Capa_1" />
  <g
     transform="matrix(0.90087041,0,0,0.89104894,278.94232,34.004584)"
     id="g4021">
    <g
       id="g4019">
      <path
         inkscape:connector-curvature="0"
         d="m 246.37254,341.80847 c -0.75168,-1.12865 -2.08281,-1.72782 -3.41724,-1.54532 l -60.06018,8.20108 7.72535,-40.74423 c 0.36569,-1.9288 -0.89418,-3.7903 -2.81419,-4.15766 -1.91577,-0.3669 -3.77255,0.89875 -4.13872,2.82707 l -8.64548,45.59777 c -0.21328,1.12343 0.12505,2.28147 0.90834,3.11149 0.78282,0.83002 1.91718,1.23057 3.04446,1.07651 l 57.76127,-7.88728 -81.04583,140.18872 14.32435,-74.35014 c 0.37136,-1.92738 -0.88286,-3.79267 -2.80192,-4.16572 -1.9186,-0.37448 -3.77585,0.88689 -4.14674,2.81475 l -18.30216,94.99435 c -0.32795,1.70317 0.61531,3.39544 2.23191,4.00408 0.40722,0.15359 0.82718,0.22706 1.24147,0.22706 1.23062,0 2.41217,-0.64752 3.06098,-1.77 l 95.19324,-164.65973 c 0.67901,-1.17416 0.63324,-2.63415 -0.11891,-3.7628 z"
         id="path4017"
         style="stroke-width:0.47294229" />
    </g>
  </g>
  <g
     transform="matrix(0.90087041,0,0,0.89104894,-72.656677,18.606088)"
     id="g4027">
    <g
       id="g4025">
      <path
         inkscape:connector-curvature="0"
         d="m 585.35447,286.88838 c -1.50336,-0.67075 -3.26624,-0.21426 -4.25857,1.1021 l -94.5633,125.39445 c -0.85171,1.13007 -0.95411,2.65927 -0.26141,3.8941 0.69316,1.23436 2.04647,1.93592 3.45262,1.7885 l 67.11454,-7.09709 -0.55585,2.88776 c -0.37136,1.92738 0.88285,3.79266 2.80192,4.16572 0.22697,0.0441 0.45299,0.0654 0.67618,0.0654 1.66143,0 3.14355,-1.18032 3.47055,-2.88017 l 1.46467,-7.60144 c 0.21328,-1.10637 -0.10806,-2.2483 -0.86634,-3.07879 -0.75829,-0.83001 -1.85867,-1.24763 -2.9784,-1.13244 l -63.74355,6.74062 80.5046,-106.75299 -0.7748,4.08703 c -0.36569,1.92881 0.89418,3.7903 2.8142,4.15766 1.91718,0.36832 3.77302,-0.89827 4.13871,-2.82707 l 3.60268,-18.99935 c 0.30765,-1.62211 -0.53698,-3.24327 -2.03845,-3.91401 z"
         id="path4023"
         style="stroke-width:0.47294229" />
    </g>
  </g>
  <g
     transform="matrix(0.90087041,0,0,0.89104894,-72.656677,18.606088)"
     id="g4029" />
  <g
     transform="matrix(0.90087041,0,0,0.89104894,-72.656677,18.606088)"
     id="g4031" />
  <g
     transform="matrix(0.90087041,0,0,0.89104894,-72.656677,18.606088)"
     id="g4033" />
  <g
     transform="matrix(0.90087041,0,0,0.89104894,-72.656677,18.606088)"
     id="g4035" />
  <g
     transform="matrix(0.90087041,0,0,0.89104894,-72.656677,18.606088)"
     id="g4037" />
  <g
     transform="matrix(0.90087041,0,0,0.89104894,-72.656677,18.606088)"
     id="g4039" />
  <g
     transform="matrix(0.90087041,0,0,0.89104894,-72.656677,18.606088)"
     id="g4041" />
  <g
     transform="matrix(0.90087041,0,0,0.89104894,-72.656677,18.606088)"
     id="g4043" />
  <g
     transform="matrix(0.90087041,0,0,0.89104894,-72.656677,18.606088)"
     id="g4045" />
  <g
     transform="matrix(0.90087041,0,0,0.89104894,-72.656677,18.606088)"
     id="g4047" />
  <g
     transform="matrix(0.90087041,0,0,0.89104894,-72.656677,18.606088)"
     id="g4049" />
  <g
     transform="matrix(0.90087041,0,0,0.89104894,-72.656677,18.606088)"
     id="g4051" />
  <g
     transform="matrix(0.90087041,0,0,0.89104894,-72.656677,18.606088)"
     id="g4053" />
  <g
     transform="matrix(0.90087041,0,0,0.89104894,-72.656677,18.606088)"
     id="g4055" />
  <g
     transform="matrix(0.90087041,0,0,0.89104894,-72.656677,18.606088)"
     id="g4057" />
  <g
     transform="matrix(0.63538344,0,0,0.6870165,262.6995,245.76114)"
     id="g4223">
    <g
       id="g4221">
      <path
         inkscape:connector-curvature="0"
         d="m 68.102994,-224.12194 c -2.52435,-3.06379 -6.94197,-4.28931 -11.35959,-2.45103 l -16.40829,6.12759 -50.48705,-108.45831 c -1.89327,-3.67655 -5.04871,-5.51483 -8.83524,-5.51483 H -183.0701 c -3.15544,0 -5.6798,1.22552 -7.57306,3.67656 l -92.76996,107.84554 c -1.89327,1.83828 -2.52436,4.90207 -1.89327,7.35311 0.63109,2.45103 1.89327,4.90207 3.78653,6.74034 l 92.76996,66.7907 c 4.41762,3.0638 10.7285,2.45104 13.88394,-1.83827 l 60.58447,-79.65864 29.030057,50.24622 -18.301557,9.19138 c -3.78653,1.83828 -5.67979,5.51483 -5.0487,9.19138 0.63108,3.67655 3.15544,7.3531 7.57305,7.96586 l 103.4984635,24.51035 c 0.63109,0 1.26218,0 2.52435,0 3.15544,0 6.3108905,-1.83827 8.2041505,-4.28931 l 55.53576,-86.39898 c 2.52435,-3.67655 1.89326,-7.96586 -0.63109,-11.02966 z m -253.066364,60.66312 -76.36167,-55.14829 83.30364,-96.81589 h 13.25286 l 41.02073,74.14382 z m 184.27775354,21.44655 -70.05078954,-16.54448 3.78653,-1.83827 c 2.52435,-1.22552 4.41762,-3.0638 5.04871,-5.51483 0.63108,-2.45104 0.63108,-4.90207 -0.63109,-7.35311 l -41.651824,-72.30553 -39.12747,-70.46726 h 117.382404 l 51.749229,111.52209 c 1.89327,3.67656 6.31089,6.12759 10.097411,5.51483 z"
         id="path4219"
         style="stroke-width:1.55463982" />
    </g>
  </g>
  <g
     transform="matrix(0.63538344,0,0,0.6870165,262.6995,245.76114)"
     id="g4229">
    <g
       id="g4227">
      <path
         inkscape:connector-curvature="0"
         d="m -150.25352,23.4326 -102.23628,-4.28931 26.5057,-51.47174 17.67047,9.80414 c 3.78653,1.83828 8.20415,1.83828 11.35959,-1.22551 3.15544,-2.45104 4.41762,-6.74035 2.52435,-10.4169 l -37.2342,-96.81589 c -1.26218,-3.67655 -5.04871,-6.12759 -9.46632,-6.12759 l -105.39172,3.67656 c -4.41762,0 -7.57306,3.06379 -8.83524,6.74034 -1.26217,3.67656 0.63109,7.96587 3.78653,10.4169 l 14.51503,9.80414 -63.73991,101.71796 c -1.89326,3.06379 -1.89326,7.3531 0,10.4169 l 70.68188,101.10519 27.13678,39.82932 c 1.89327,2.45104 5.04871,4.28931 8.20415,4.28931 h 143.88811 c 5.67979,0 10.09741,-4.28931 10.09741,-9.80414 V 33.23674 c 0,-4.90207 -4.41762,-9.19138 -9.46633,-9.80414 z M -314.96752,94.512616 -380.6007,0.14776999 -314.33644,-104.02122 c 2.52436,-3.67656 1.89327,-7.96587 -1.26217,-11.02966 l 68.7886,-3.06379 25.24353,66.17794 -3.78653,-1.83827 c -2.52435,-1.22552 -5.04871,-1.83828 -7.57306,-0.61276 -2.52435,0.61276 -4.41762,2.45103 -5.67979,4.90207 l -37.86529,73.53105 z m 153.9855,37.378284 h -128.74199 l -12.62176,-18.99552 40.38965,-74.75657 100.9741,4.28931 z"
         id="path4225"
         style="stroke-width:1.55463982" />
    </g>
  </g>
  <g
     transform="matrix(0.63538344,0,0,0.6870165,262.6995,245.76114)"
     id="g4235">
    <g
       id="g4233">
      <path
         inkscape:connector-curvature="0"
         d="m 184.22323,-8.43086 -63.10883,-126.2283 c -1.26218,-2.45104 -3.15544,-4.28931 -5.67979,-4.90207 -2.52436,-0.61276 -5.04871,-0.61276 -7.57306,1.22552 L 6.8874435,-83.800183 c -4.41762,2.451035 -6.31087996,8.578623 -3.78653,12.867933 L 52.325794,15.46674 -6.9964965,20.36881 -7.6275865,0.76052999 c 0,-4.28931999 -3.1554395,-7.35310999 -6.9419695,-8.57862999 -3.78653,-1.22551 -8.20415,0 -10.7285,3.0638 l -65.633167,81.496906 c -2.52436,3.0638 -2.52436,7.96587 -0.63109,11.02966 l 58.691197,84.560714 c 1.89327,2.45103 5.04871,4.28931 8.20415,4.28931 0.63109,0 1.89326,0 2.52435,-0.61276 3.78653,-1.22552 6.94197,-4.90207 6.94197,-8.57862 l 0.63109,-17.15725 H 107.86155 c 3.78653,0 7.57306,-2.45103 8.83523,-5.51483 L 184.22323,-0.46499001 c 1.26217,-2.45103999 1.26217,-5.51482999 0,-7.96586999 z M 102.81284,131.8909 H -22.773706 c -4.41761,0 -8.20414,3.06379 -9.46632,6.74035 l -38.49638,-55.761054 44.80726,-55.761046 v 4.28931 c 0,2.45104 1.26218,4.90207 3.15544,6.74035 1.89327,1.83828 4.41762,2.45104 7.57306,2.45104 l 84.56582,-7.35311 82.041466,-5.51483 z M 159.61079,7.50087 73.151704,13.62846 24.557913,-72.15777 107.86155,-117.50192 165.29058,-4.14154 Z"
         id="path4231"
         style="stroke-width:1.55463982" />
    </g>
  </g>
  <g
     transform="matrix(0.63538344,0,0,0.6870165,262.6995,245.76114)"
     id="g4237" />
  <g
     transform="matrix(0.63538344,0,0,0.6870165,262.6995,245.76114)"
     id="g4239" />
  <g
     transform="matrix(0.63538344,0,0,0.6870165,262.6995,245.76114)"
     id="g4241" />
  <g
     transform="matrix(0.63538344,0,0,0.6870165,262.6995,245.76114)"
     id="g4243" />
  <g
     transform="matrix(0.63538344,0,0,0.6870165,262.6995,245.76114)"
     id="g4245" />
  <g
     transform="matrix(0.63538344,0,0,0.6870165,262.6995,245.76114)"
     id="g4247" />
  <g
     transform="matrix(0.63538344,0,0,0.6870165,262.6995,245.76114)"
     id="g4249" />
  <g
     transform="matrix(0.63538344,0,0,0.6870165,262.6995,245.76114)"
     id="g4251" />
  <g
     transform="matrix(0.63538344,0,0,0.6870165,262.6995,245.76114)"
     id="g4253" />
  <g
     transform="matrix(0.63538344,0,0,0.6870165,262.6995,245.76114)"
     id="g4255" />
  <g
     transform="matrix(0.63538344,0,0,0.6870165,262.6995,245.76114)"
     id="g4257" />
  <g
     transform="matrix(0.63538344,0,0,0.6870165,262.6995,245.76114)"
     id="g4259" />
  <g
     transform="matrix(0.63538344,0,0,0.6870165,262.6995,245.76114)"
     id="g4261" />
  <g
     transform="matrix(0.63538344,0,0,0.6870165,262.6995,245.76114)"
     id="g4263" />
  <g
     transform="matrix(0.63538344,0,0,0.6870165,262.6995,245.76114)"
     id="g4265" />
</svg>
