<?xml version="1.0" encoding="UTF-8" standalone="no"?>
<svg
   xmlns:dc="http://purl.org/dc/elements/1.1/"
   xmlns:cc="http://creativecommons.org/ns#"
   xmlns:rdf="http://www.w3.org/1999/02/22-rdf-syntax-ns#"
   xmlns:svg="http://www.w3.org/2000/svg"
   xmlns="http://www.w3.org/2000/svg"
   xmlns:sodipodi="http://sodipodi.sourceforge.net/DTD/sodipodi-0.dtd"
   xmlns:inkscape="http://www.inkscape.org/namespaces/inkscape"
   id="Capa_1"
   enable-background="new 0 0 512 512"
   height="512"
   viewBox="0 0 512 512"
   width="512"
   version="1.1"
   sodipodi:docname="balance-performance.svg"
   inkscape:version="0.92.4 (5da689c313, 2019-01-14)">
  <metadata
     id="metadata3943">
    <rdf:RDF>
      <cc:Work
         rdf:about="">
        <dc:format>image/svg+xml</dc:format>
        <dc:type
           rdf:resource="http://purl.org/dc/dcmitype/StillImage" />
        <dc:title />
      </cc:Work>
    </rdf:RDF>
  </metadata>
  <defs
     id="defs3941" />
  <sodipodi:namedview
     pagecolor="#ffffff"
     bordercolor="#666666"
     borderopacity="1"
     objecttolerance="10"
     gridtolerance="10"
     guidetolerance="10"
     inkscape:pageopacity="0"
     inkscape:pageshadow="2"
     inkscape:window-width="1920"
     inkscape:window-height="1040"
     id="namedview3939"
     showgrid="false"
     inkscape:zoom="1.5585938"
     inkscape:cx="256"
     inkscape:cy="256"
     inkscape:window-x="0"
     inkscape:window-y="0"
     inkscape:window-maximized="1"
     inkscape:current-layer="Capa_1" />
  <g
     transform="matrix(0.97176306,0,0,0.98282833,336.03578,9.8963051)"
     id="g4021">
    <g
       id="g4019">
      <path
         inkscape:connector-curvature="0"
         d="m -19.113051,153.75475 c -1.437465,-2.11311 -3.983033,-3.23491 -6.534911,-2.89322 l -114.855248,15.35448 14.77346,-76.283447 c 0.69933,-3.611199 -1.70997,-7.096396 -5.38167,-7.784186 -3.6636,-0.686929 -7.21439,1.682686 -7.91463,5.292986 l -16.53306,85.370497 c -0.40786,2.10334 0.23914,4.27149 1.73705,5.82549 1.49701,1.55401 3.66629,2.30394 5.82203,2.0155 l 110.458962,-14.76697 -154.986862,262.46855 27.39297,-139.20217 c 0.71016,-3.60854 -1.68833,-7.10083 -5.35822,-7.79927 -3.669,-0.70112 -7.22069,1.66048 -7.92996,5.26992 l -34.99988,177.85332 c -0.62715,3.18876 1.17668,6.35712 4.26817,7.49665 0.77874,0.28756 1.58184,0.42511 2.3741,0.42511 2.35336,0 4.61288,-1.21232 5.85363,-3.31389 L -18.885655,160.79966 c 1.298495,-2.19832 1.210968,-4.93179 -0.227396,-7.04491 z"
         id="path4017"
         style="stroke-width:0.89489561" />
    </g>
  </g>
  <g
     transform="matrix(1.8583376,0,0,1.8401019,-865.66796,-499.75095)"
     id="g4027">
    <g
       id="g4025">
      <path
         inkscape:connector-curvature="0"
         d="m 585.35447,286.88838 c -1.50336,-0.67075 -3.26624,-0.21426 -4.25857,1.1021 l -94.5633,125.39445 c -0.85171,1.13007 -0.95411,2.65927 -0.26141,3.8941 0.69316,1.23436 2.04647,1.93592 3.45262,1.7885 l 67.11454,-7.09709 -0.55585,2.88776 c -0.37136,1.92738 0.88285,3.79266 2.80192,4.16572 0.22697,0.0441 0.45299,0.0654 0.67618,0.0654 1.66143,0 3.14355,-1.18032 3.47055,-2.88017 l 1.46467,-7.60144 c 0.21328,-1.10637 -0.10806,-2.2483 -0.86634,-3.07879 -0.75829,-0.83001 -1.85867,-1.24763 -2.9784,-1.13244 l -63.74355,6.74062 80.5046,-106.75299 -0.7748,4.08703 c -0.36569,1.92881 0.89418,3.7903 2.8142,4.15766 1.91718,0.36832 3.77302,-0.89827 4.13871,-2.82707 l 3.60268,-18.99935 c 0.30765,-1.62211 -0.53698,-3.24327 -2.03845,-3.91401 z"
         id="path4023"
         style="stroke-width:0.47294229" />
    </g>
  </g>
  <g
     transform="matrix(0.90087041,0,0,0.89104894,-57.899785,13.473256)"
     id="g4029" />
  <g
     transform="matrix(0.90087041,0,0,0.89104894,-57.899785,13.473256)"
     id="g4031" />
  <g
     transform="matrix(0.90087041,0,0,0.89104894,-57.899785,13.473256)"
     id="g4033" />
  <g
     transform="matrix(0.90087041,0,0,0.89104894,-57.899785,13.473256)"
     id="g4035" />
  <g
     transform="matrix(0.90087041,0,0,0.89104894,-57.899785,13.473256)"
     id="g4037" />
  <g
     transform="matrix(0.90087041,0,0,0.89104894,-57.899785,13.473256)"
     id="g4039" />
  <g
     transform="matrix(0.90087041,0,0,0.89104894,-57.899785,13.473256)"
     id="g4041" />
  <g
     transform="matrix(0.90087041,0,0,0.89104894,-57.899785,13.473256)"
     id="g4043" />
  <g
     transform="matrix(0.90087041,0,0,0.89104894,-57.899785,13.473256)"
     id="g4045" />
  <g
     transform="matrix(0.90087041,0,0,0.89104894,-57.899785,13.473256)"
     id="g4047" />
  <g
     transform="matrix(0.90087041,0,0,0.89104894,-57.899785,13.473256)"
     id="g4049" />
  <g
     transform="matrix(0.90087041,0,0,0.89104894,-57.899785,13.473256)"
     id="g4051" />
  <g
     transform="matrix(0.90087041,0,0,0.89104894,-57.899785,13.473256)"
     id="g4053" />
  <g
     transform="matrix(0.90087041,0,0,0.89104894,-57.899785,13.473256)"
     id="g4055" />
  <g
     transform="matrix(0.90087041,0,0,0.89104894,-57.899785,13.473256)"
     id="g4057" />
  <g
     transform="matrix(0.63538344,0,0,0.6870165,277.45639,240.62831)"
     id="g4223">
    <g
       id="g4221">
      <path
         inkscape:connector-curvature="0"
         d="m 220.17909,115.74337 c -1.29188,-1.4793 -3.55268,-2.07102 -5.81347,-1.18344 l -8.39724,2.9586 -25.83764,-52.367252 c -0.96892,-1.77516 -2.58377,-2.662743 -4.52159,-2.662743 H 91.636787 c -1.61486,0 -2.90674,0.591722 -3.87565,1.775165 l -47.47668,52.07139 c -0.96891,0.88758 -1.29189,2.36688 -0.96891,3.55032 0.32297,1.18344 0.96891,2.36689 1.93782,3.25446 l 47.47668,32.24876 c 2.26079,1.47931 5.4905,1.18345 7.10535,-0.88757 l 31.005183,-38.46183 14.85665,24.26054 -9.36615,4.4379 c -1.93782,0.88758 -2.90673,2.66274 -2.58376,4.4379 0.32297,1.77516 1.61485,3.55032 3.87565,3.84618 l 52.96718,11.83441 c 0.32297,0 0.64594,0 1.29188,0 1.61485,0 3.22971,-0.88758 4.19862,-2.07102 l 28.42141,-41.71629 c 1.29188,-1.77516 0.96891,-3.84618 -0.32297,-5.32548 z M 90.667867,145.03353 51.588427,118.40611 94.220547,71.660201 h 6.782393 l 20.99309,35.799089 z m 94.307423,10.3551 -35.84973,-7.98822 1.93782,-0.88758 c 1.29188,-0.59172 2.2608,-1.4793 2.58377,-2.66274 0.32296,-1.18344 0.32296,-2.36688 -0.32297,-3.55032 L 132.00811,105.38826 111.98393,71.364345 h 60.07254 l 26.48359,53.846545 c 0.96891,1.77517 3.22971,2.95861 5.16753,2.66275 z"
         id="path4219"
         style="stroke-width:0.77279586" />
    </g>
  </g>
  <g
     transform="matrix(0.63538344,0,0,0.6870165,277.45639,240.62831)"
     id="g4229">
    <g
       id="g4227">
      <path
         inkscape:connector-curvature="0"
         d="m 108.43126,235.27089 -52.321243,-2.07102 13.56476,-24.85226 9.04318,4.73376 c 1.93783,0.88758 4.19862,0.88758 5.81347,-0.59171 1.61486,-1.18345 2.2608,-3.25447 1.29189,-5.02963 l -19.05527,-46.74591 c -0.64594,-1.77516 -2.58377,-2.95861 -4.84456,-2.95861 l -53.9360901,1.77517 c -2.26079,0 -3.87565,1.4793 -4.52159,3.25446 -0.64594,1.77516 0.32297,3.84618 1.93783,5.02962 l 7.4283201,4.73376 -32.62003,49.1128 c -0.96891,1.4793 -0.96891,3.55032 0,5.02962 l 36.17271,48.81694 13.88773,19.23091 c 0.96891,1.18344 2.58377,2.07102 4.19862,2.07102 h 73.637303 c 2.90673,0 5.16753,-2.07102 5.16753,-4.73376 v -52.0714 c 0,-2.36688 -2.2608,-4.4379 -4.84456,-4.73376 z M 24.135927,269.59067 -9.4530131,224.0282 24.458897,173.73197 c 1.29189,-1.77517 0.96892,-3.84619 -0.64594,-5.32549 l 35.20379,-1.4793 12.91883,31.9529 -1.93782,-0.88757 c -1.29189,-0.59173 -2.58377,-0.88759 -3.87565,-0.29587 -1.29188,0.29587 -2.2608,1.18344 -2.90674,2.36689 l -19.37823,35.50322 z m 78.804833,18.04748 H 37.054747 l -6.45941,-9.17167 20.67012,-36.09494 51.675303,2.07102 z"
         id="path4225"
         style="stroke-width:0.77279586" />
    </g>
  </g>
  <g
     transform="matrix(0.63538344,0,0,0.6870165,277.45639,240.62831)"
     id="g4235">
    <g
       id="g4233">
      <path
         inkscape:connector-curvature="0"
         d="m 279.60569,219.88616 -32.29707,-60.9472 c -0.64594,-1.18345 -1.61485,-2.07102 -2.90673,-2.36688 -1.29189,-0.29587 -2.58377,-0.29587 -3.87565,0.59172 l -51.6753,26.33155 c -2.26079,1.18344 -3.2297,4.14205 -1.93782,6.21307 l 25.19171,41.71629 -30.35924,2.36688 -0.32297,-9.46753 c 0,-2.07102 -1.61485,-3.55032 -3.55268,-4.14204 -1.93782,-0.59172 -4.19862,0 -5.4905,1.4793 l -33.58894,39.3494 c -1.29189,1.47931 -1.29189,3.84619 -0.32297,5.32549 l 30.03626,40.82871 c 0.96892,1.18344 2.58377,2.07102 4.19862,2.07102 0.32297,0 0.96891,0 1.29188,-0.29586 1.93783,-0.59172 3.55268,-2.36688 3.55268,-4.14204 l 0.32297,-8.28409 h 62.6563 c 1.93782,0 3.87565,-1.18344 4.52159,-2.66274 l 34.55786,-70.11887 c 0.64594,-1.18344 0.64594,-2.66274 0,-3.84618 z m -41.66322,67.75199 h -64.27115 c -2.26079,0 -4.19861,1.47929 -4.84456,3.25446 l -19.7012,-26.92328 22.93091,-26.92328 v 2.07102 c 0,1.18344 0.64594,2.36688 1.61485,3.25447 0.96892,0.88758 2.2608,1.18344 3.87565,1.18344 l 43.27806,-3.55033 41.98618,-2.66274 z m 29.06736,-60.05963 -44.24697,2.95861 -24.86874,-41.42043 42.63212,-21.89366 29.39033,54.73414 z"
         id="path4231"
         style="stroke-width:0.77279586" />
    </g>
  </g>
  <g
     transform="matrix(0.63538344,0,0,0.6870165,277.45639,240.62831)"
     id="g4237" />
  <g
     transform="matrix(0.63538344,0,0,0.6870165,277.45639,240.62831)"
     id="g4239" />
  <g
     transform="matrix(0.63538344,0,0,0.6870165,277.45639,240.62831)"
     id="g4241" />
  <g
     transform="matrix(0.63538344,0,0,0.6870165,277.45639,240.62831)"
     id="g4243" />
  <g
     transform="matrix(0.63538344,0,0,0.6870165,277.45639,240.62831)"
     id="g4245" />
  <g
     transform="matrix(0.63538344,0,0,0.6870165,277.45639,240.62831)"
     id="g4247" />
  <g
     transform="matrix(0.63538344,0,0,0.6870165,277.45639,240.62831)"
     id="g4249" />
  <g
     transform="matrix(0.63538344,0,0,0.6870165,277.45639,240.62831)"
     id="g4251" />
  <g
     transform="matrix(0.63538344,0,0,0.6870165,277.45639,240.62831)"
     id="g4253" />
  <g
     transform="matrix(0.63538344,0,0,0.6870165,277.45639,240.62831)"
     id="g4255" />
  <g
     transform="matrix(0.63538344,0,0,0.6870165,277.45639,240.62831)"
     id="g4257" />
  <g
     transform="matrix(0.63538344,0,0,0.6870165,277.45639,240.62831)"
     id="g4259" />
  <g
     transform="matrix(0.63538344,0,0,0.6870165,277.45639,240.62831)"
     id="g4261" />
  <g
     transform="matrix(0.63538344,0,0,0.6870165,277.45639,240.62831)"
     id="g4263" />
  <g
     transform="matrix(0.63538344,0,0,0.6870165,277.45639,240.62831)"
     id="g4265" />
</svg>
