<svg id="Layer_5" enable-background="new 0 0 64 64" height="512" viewBox="0 0 64 64" width="512" xmlns="http://www.w3.org/2000/svg"><g><path d="m55.782 24c4.242-1.852 7.218-6.083 7.218-11 0-6.617-5.383-12-12-12s-12 5.383-12 12c0 4.917 2.976 9.148 7.218 11-4.242 1.852-7.218 6.083-7.218 11 0 5.213 3.347 9.647 8 11.3v5.7h-4l8 10.667 8-10.667h-4v-5.7c4.653-1.653 8-6.087 8-11.3 0-4.917-2.976-9.148-7.218-11zm-4.782-21c5.514 0 10 4.486 10 10 0 2.057-.626 3.971-1.695 5.562-.924-2.25-2.708-4.005-4.925-4.901.989-.914 1.62-2.211 1.62-3.661 0-2.757-2.243-5-5-5s-5 2.243-5 5c0 1.45.631 2.747 1.62 3.661-2.217.896-4.002 2.651-4.925 4.901-1.069-1.591-1.695-3.505-1.695-5.562 0-5.514 4.486-10 10-10zm-3 7c0-1.654 1.346-3 3-3s3 1.346 3 3-1.346 3-3 3-3-1.346-3-3zm-3.785 10.325c.761-3.114 3.534-5.325 6.785-5.325s6.024 2.211 6.785 5.325c-1.785 1.654-4.165 2.675-6.785 2.675s-5-1.021-6.785-2.675zm3.785 11.675c0-1.654 1.346-3 3-3s3 1.346 3 3-1.346 3-3 3-3-1.346-3-3zm-3.785 10.325c.761-3.114 3.534-5.325 6.785-5.325s6.024 2.211 6.785 5.325c-1.785 1.654-4.165 2.675-6.785 2.675s-5-1.021-6.785-2.675zm10.785 11.675-4 5.333-4-5.333h2v-7.181c.652.11 1.317.181 2 .181s1.348-.071 2-.181v7.181zm4.305-13.438c-.924-2.25-2.708-4.005-4.925-4.901.989-.914 1.62-2.211 1.62-3.661 0-2.757-2.243-5-5-5s-5 2.243-5 5c0 1.45.631 2.747 1.62 3.661-2.217.896-4.002 2.651-4.925 4.901-1.069-1.591-1.695-3.505-1.695-5.562 0-5.514 4.486-10 10-10s10 4.486 10 10c0 2.057-.626 3.971-1.695 5.562z"/><path d="m39 24v-4c0-1.302-.839-2.402-2-2.816v-2.914l-2.734-.876c-.248-.772-.556-1.519-.919-2.229l1.312-2.549-5.274-5.274-2.549 1.312c-.709-.362-1.455-.67-2.229-.919l-.878-2.735h-7.459l-.876 2.734c-.774.249-1.52.557-2.229.919l-2.549-1.312-5.274 5.275 1.312 2.549c-.363.711-.671 1.457-.919 2.229l-2.735.877v2.914c-1.161.413-2 1.513-2 2.815v4c0 1.302.839 2.402 2 2.816v5.184c0 1.302.839 2.402 2 2.816v5.184c0 1.302.839 2.402 2 2.816v5.184c0 1.654 1.346 3 3 3h1v12h18v-12h1c1.654 0 3-1.346 3-3v-5.184c1.161-.414 2-1.514 2-2.816v-5.184c1.161-.414 2-1.514 2-2.816v-5.184c1.161-.414 2-1.514 2-2.816zm-31.644-9.024.146-.517c.278-.986.667-1.927 1.153-2.797l.262-.469-1.129-2.194 3.211-3.212 2.195 1.13.468-.263c.867-.484 1.807-.872 2.796-1.152l.517-.146.754-2.356h4.541l.755 2.356.517.146c.989.28 1.929.668 2.796 1.152l.468.263 2.195-1.13 3.211 3.212-1.129 2.194.262.469c.487.87.875 1.811 1.153 2.797l.146.517 2.356.753v1.271h-4.051c-.507-5.598-5.221-10-10.949-10s-10.442 4.402-10.949 10h-4.051v-1.271zm19.564 2.024c-.488-3.386-3.401-6-6.92-6s-6.432 2.614-6.92 6h-2.021c.5-4.493 4.317-8 8.941-8s8.442 3.507 8.941 8zm-2.021 0h-9.798c.465-2.279 2.484-4 4.899-4s4.434 1.721 4.899 4zm2.101 44h-14v-10h14zm3-12h-20c-.551 0-1-.448-1-1v-5h22v5c0 .552-.449 1-1 1zm2-8h-24c-.551 0-1-.448-1-1v-5h26v5c0 .552-.449 1-1 1zm2-8h-28c-.551 0-1-.448-1-1v-5h30v5c0 .552-.449 1-1 1zm3-9c0 .552-.449 1-1 1h-32c-.551 0-1-.448-1-1v-4c0-.552.449-1 1-1h32c.551 0 1 .448 1 1z"/><path d="m5 21h2v2h-2z"/><path d="m9 21h2v2h-2z"/><path d="m13 21h2v2h-2z"/><path d="m23 29h2v2h-2z"/><path d="m27 29h2v2h-2z"/><path d="m31 29h2v2h-2z"/><path d="m13 37h2v2h-2z"/><path d="m17 37h2v2h-2z"/><path d="m9 37h2v2h-2z"/><path d="m19 45h2v2h-2z"/><path d="m23 45h2v2h-2z"/><path d="m27 45h2v2h-2z"/></g></svg>