<?xml version="1.0" encoding="iso-8859-1"?>
<!-- Generator: Adobe Illustrator 19.0.0, SVG Export Plug-In . SVG Version: 6.00 Build 0)  -->
<svg version="1.1" id="Capa_1" xmlns="http://www.w3.org/2000/svg" xmlns:xlink="http://www.w3.org/1999/xlink" x="0px" y="0px"
	 viewBox="0 0 512.001 512.001" style="enable-background:new 0 0 512.001 512.001;" xml:space="preserve">
<g>
	<g>
		<path d="M415.208,152.963c-1.593-2.381-4.414-3.645-7.242-3.26l-127.283,17.301l16.372-85.954
			c0.775-4.069-1.895-7.996-5.964-8.771c-4.06-0.774-7.995,1.896-8.771,5.964l-18.322,96.193c-0.452,2.37,0.265,4.813,1.925,6.564
			c1.659,1.751,4.063,2.596,6.452,2.271l122.411-16.639L223.029,462.374l30.357-156.849c0.787-4.066-1.871-8.001-5.938-8.788
			c-4.066-0.79-8.002,1.871-8.788,5.938l-38.787,200.4c-0.695,3.593,1.304,7.163,4.73,8.447c0.863,0.324,1.753,0.479,2.631,0.479
			c2.608,0,5.112-1.366,6.487-3.734L415.46,160.901C416.899,158.424,416.802,155.344,415.208,152.963z"/>
	</g>
</g>
<g>
	<g>
		<path d="M306.477,0.647c-3.186-1.415-6.922-0.452-9.025,2.325L97.048,267.504c-1.805,2.384-2.022,5.61-0.554,8.215
			c1.469,2.604,4.337,4.084,7.317,3.773l142.233-14.972l-1.178,6.092c-0.787,4.066,1.871,8.001,5.938,8.788
			c0.481,0.093,0.96,0.138,1.433,0.138c3.521,0,6.662-2.49,7.355-6.076l3.104-16.036c0.452-2.334-0.229-4.743-1.836-6.495
			c-1.607-1.751-3.939-2.632-6.312-2.389l-135.089,14.22l170.61-225.206l-1.642,8.622c-0.775,4.069,1.895,7.996,5.964,8.771
			c4.063,0.777,7.996-1.895,8.771-5.964l7.635-40.081C311.449,5.482,309.659,2.062,306.477,0.647z"/>
	</g>
</g>
<g>
</g>
<g>
</g>
<g>
</g>
<g>
</g>
<g>
</g>
<g>
</g>
<g>
</g>
<g>
</g>
<g>
</g>
<g>
</g>
<g>
</g>
<g>
</g>
<g>
</g>
<g>
</g>
<g>
</g>
</svg>
