<?xml version="1.0" encoding="iso-8859-1"?>
<!-- Generator: Adobe Illustrator 19.0.0, SVG Export Plug-In . SVG Version: 6.00 Build 0)  -->
<svg version="1.1" id="Capa_1" xmlns="http://www.w3.org/2000/svg" xmlns:xlink="http://www.w3.org/1999/xlink" x="0px" y="0px"
	 viewBox="0 0 372.3 372.3" style="enable-background:new 0 0 372.3 372.3;" xml:space="preserve">
<g>
	<g>
		<path d="M298.1,91.35c-1.6-2-4.4-2.8-7.2-1.6l-10.4,4l-32-70.8c-1.2-2.4-3.2-3.6-5.6-3.6h-104c-2,0-3.6,0.8-4.8,2.4l-58.8,70.4
			c-1.2,1.2-1.6,3.2-1.2,4.8c0.4,1.6,1.2,3.2,2.4,4.4l58.8,43.6c2.8,2,6.8,1.6,8.8-1.2l38.4-52l18.4,32.8l-11.6,6
			c-2.4,1.2-3.6,3.6-3.2,6c0.4,2.4,2,4.8,4.8,5.2l65.6,16c0.4,0,0.8,0,1.6,0c2,0,4-1.2,5.2-2.8l35.2-56.4
			C300.1,96.15,299.7,93.35,298.1,91.35z M137.7,130.95l-48.4-36l52.8-63.2h8.4l26,48.4L137.7,130.95z M254.5,144.95l-44.4-10.8
			l2.4-1.2c1.6-0.8,2.8-2,3.2-3.6c0.4-1.6,0.4-3.2-0.4-4.8l-26.4-47.2l-24.8-46h74.4l32.8,72.8c1.2,2.4,4,4,6.4,3.6L254.5,144.95z"
			/>
	</g>
</g>
<g>
	<g>
		<path d="M159.7,252.95l-64.8-2.8l16.8-33.6l11.2,6.4c2.4,1.2,5.2,1.2,7.2-0.8c2-1.6,2.8-4.4,1.6-6.8l-23.6-63.2
			c-0.8-2.4-3.2-4-6-4l-66.8,2.4c-2.8,0-4.8,2-5.6,4.4c-0.8,2.4,0.4,5.2,2.4,6.8l9.2,6.4l-40.4,66.4c-1.2,2-1.2,4.8,0,6.8l44.8,66
			l17.2,26c1.2,1.6,3.2,2.8,5.2,2.8h91.2c3.6,0,6.4-2.8,6.4-6.4v-70.4C165.7,256.15,162.9,253.35,159.7,252.95z M55.3,299.35
			l-41.6-61.6l42-68c1.6-2.4,1.2-5.2-0.8-7.2l43.6-2l16,43.2l-2.4-1.2c-1.6-0.8-3.2-1.2-4.8-0.4c-1.6,0.4-2.8,1.6-3.6,3.2l-24,48
			L55.3,299.35z M152.9,323.75H71.3l-8-12.4l25.6-48.8l64,2.8V323.75z"/>
	</g>
</g>
<g>
	<g>
		<path d="M371.7,232.15l-40-82.4c-0.8-1.6-2-2.8-3.6-3.2c-1.6-0.4-3.2-0.4-4.8,0.8l-64,35.6c-2.8,1.6-4,5.6-2.4,8.4l31.2,56.4
			l-37.6,3.2l-0.4-12.8c0-2.8-2-4.8-4.4-5.6c-2.4-0.8-5.2,0-6.8,2l-41.6,53.2c-1.6,2-1.6,5.2-0.4,7.2l37.2,55.2
			c1.2,1.6,3.2,2.8,5.2,2.8c0.4,0,1.2,0,1.6-0.4c2.4-0.8,4.4-3.2,4.4-5.6l0.4-11.2h77.6c2.4,0,4.8-1.6,5.6-3.6l42.8-94.8
			C372.5,235.75,372.5,233.75,371.7,232.15z M320.1,323.75h-79.6c-2.8,0-5.2,2-6,4.4l-24.4-36.4l28.4-36.4v2.8c0,1.6,0.8,3.2,2,4.4
			c1.2,1.2,2.8,1.6,4.8,1.6l53.6-4.8l52-3.6L320.1,323.75z M356.1,242.55l-54.8,4l-30.8-56l52.8-29.6l36.4,74L356.1,242.55z"/>
	</g>
</g>
<g>
</g>
<g>
</g>
<g>
</g>
<g>
</g>
<g>
</g>
<g>
</g>
<g>
</g>
<g>
</g>
<g>
</g>
<g>
</g>
<g>
</g>
<g>
</g>
<g>
</g>
<g>
</g>
<g>
</g>
</svg>
